<svg width="47" height="40" viewBox="0 0 47 40" fill="none" xmlns="http://www.w3.org/2000/svg">
<path d="M30.8333 39.582H26.3458L22.1792 29.1653H8.65417L4.4875 39.582H0L13.3333 6.24867H17.5L30.8333 39.582ZM40.4167 20.832V39.582H36.25V20.832H40.4167ZM10.3208 24.9987H20.5125L15.4167 12.2591L10.3208 24.9987ZM37.3521 0.665337C37.4303 0.468993 37.5656 0.300629 37.7406 0.182017C37.9155 0.0634051 38.122 0 38.3333 0C38.5447 0 38.7512 0.0634051 38.9261 0.182017C39.101 0.300629 39.2364 0.468993 39.3146 0.665337L39.8417 1.93617C40.726 4.09258 42.4037 5.8277 44.5292 6.78409L46.0229 7.45075C46.2142 7.53925 46.3761 7.68063 46.4896 7.8582C46.6031 8.03577 46.6634 8.2421 46.6634 8.45284C46.6634 8.66357 46.6031 8.86991 46.4896 9.04748C46.3761 9.22504 46.2142 9.36642 46.0229 9.45492L44.4437 10.1591C42.37 11.0881 40.7198 12.7606 39.8187 14.8466L39.3062 16.0258C39.2262 16.2178 39.091 16.3818 38.9179 16.4972C38.7448 16.6125 38.5414 16.6741 38.3333 16.6741C38.1253 16.6741 37.9219 16.6125 37.7488 16.4972C37.5756 16.3818 37.4405 16.2178 37.3604 16.0258L36.8458 14.8487C35.9457 12.7623 34.2962 11.089 32.2229 10.1591L30.6396 9.45492C30.4477 9.36668 30.2852 9.22527 30.1713 9.04748C30.0574 8.86969 29.9969 8.66295 29.9969 8.4518C29.9969 8.24064 30.0574 8.0339 30.1713 7.85611C30.2852 7.67832 30.4477 7.53692 30.6396 7.44867L32.1354 6.782C34.2609 5.82704 35.9393 4.09347 36.825 1.93825L37.3521 0.665337Z" fill="black"/>
</svg>
