<svg version="1.1" id="Layer_1" xmlns:x="ns_extend;" xmlns:i="ns_ai;" xmlns:graph="ns_graphs;" xmlns="http://www.w3.org/2000/svg" xmlns:xlink="http://www.w3.org/1999/xlink" x="0px" y="0px" viewBox="0 0 702 50" style="enable-background:new 0 0 702 50;" xml:space="preserve">
 <style type="text/css">
  .st0{fill:#041E3A;}
 </style>
 <metadata>
  <sfw xmlns="ns_sfw;">
   <slices>
   </slices>
   <sliceSourceBounds bottomLeftOrigin="true" height="50" width="702" x="-352.4" y="0.2">
   </sliceSourceBounds>
  </sfw>
 </metadata>
 <g>
  <path class="st0" d="M12.7,23.3V2h6.6c8,0,10.8,5.2,10.8,10.2c0,6.8-4.2,11.2-13.1,11.2h-4.4V23.3z M22.3,24.5
		c10.8-0.8,16.5-5.4,16.5-12c0-6.2-4.2-11.8-17.1-11.8H0v1.6h4.6V48H0v1.6h18.1V48h-5.4V24.7h0.2l18.9,24.7h12v-1.6h-3.6L22.3,24.5z
		">
  </path>
  <path class="st0" d="M71.7,28.9l7.4-20.7h0.2l7.2,20.7H71.7z M84.5,0.4h-4.8L62.7,48h-4.4v1.6h13.7V48h-7.2l6.4-18.1h15.9L93.2,48
		h-5.4v1.6h16.5V48h-3L84.5,0.4z">
  </path>
  <path class="st0" d="M147.2,47.8h-11V2.2h7.4V0.6h-20.1v1.6h4.6V48h-4.6v1.6h36.1V29.9H158C153.6,47,152.2,47.8,147.2,47.8">
  </path>
  <path class="st0" d="M195.8,2.8h7.6c7.8,0,11,4.4,11,11.2c0,8.6-3.6,10.6-11.6,10.6h-7C195.8,24.3,195.8,2.8,195.8,2.8L195.8,2.8z
		 M202.8,48h-7V25.7h9c12.2,0,18.1-5,18.1-12.2s-6.4-12.9-18.1-12.9h-21.5v1.6h4.6v45.6h-4.6v1.6h19.3V48H202.8z">
  </path>
  <polygon class="st0" points="270.7,47.8 270.7,49.6 288.2,49.6 288.2,47.8 283.5,47.8 283.5,2.6 288.2,2.6 288.2,0.6 270.7,0.6 
		270.7,2.6 275.3,2.6 275.3,23.5 255.8,23.5 255.8,2.6 260.6,2.6 260.6,0.6 243.2,0.6 243.2,2.6 247.6,2.6 247.6,47.8 243.2,47.8 
		243.2,49.6 260.6,49.6 260.6,47.8 255.8,47.8 255.8,24.9 275.3,24.9 275.3,47.8 	">
  </polygon>
  <path class="st0" d="M392,29.7h-1.6c-4.6,17.1-6,18.1-10.8,18.1h-11V2.2h7.4V0.6h-20.1v1.6h4.6V48h-4.6v1.6H392V29.7">
  </path>
  <path class="st0" d="M423.3,28.9l7.4-20.7h0.2l7.2,20.7H423.3z M436.3,0.4h-4.8L414.3,48H410v1.6h13.7V48h-7.2l6.4-18.1h15.9
		L445,48h-5.4v1.6H456V48h-2.8L436.3,0.4z">
  </path>
  <path class="st0" d="M502.2,2h6.6v34.9c0,7.4-5,11.8-12.2,11.8c-4.8,0-9.8-2.8-9.8-11.4V2h5.2V0h-17.9v1.6h4.6v33.9
		c0,9.6,5.4,14.5,17.7,14.5c8.8,0,14.7-5.2,14.7-13.3V2h4.6V0h-13.5L502.2,2L502.2,2z">
  </path>
  <path class="st0" d="M548.8,23.3V2h6.6c8,0,10.8,5.2,10.8,10.2c0,6.8-4.2,11.2-13.1,11.2h-4.4V23.3z M558.6,24.5
		c10.8-0.8,16.5-5.4,16.5-12c0-6.2-4.2-11.8-17.1-11.8h-21.7v1.6h4.6V48h-4.6v1.6h18.1V48h-5.8V24.7h0.2l18.9,24.7h12v-1.6h-3.4
		L558.6,24.5z">
  </path>
  <path class="st0" d="M623.3,47.8h-13.1V24.7h5.8c3.8,0,5.4,2.2,7,9.6h1.6V13.3h-1.6c-1.4,7.6-3.4,9.6-7,9.6h-5.8V2h14.9
		c3.6,0,4.8,1,8.8,14.1h1.6V0.6h-38v1.6h4.6V48h-4.6v1.6h38.8V31.3h-1.8C630.1,45.8,628.5,47.8,623.3,47.8">
  </path>
  <polygon class="st0" points="689.2,0.6 689.2,2.6 695.2,2.6 695.2,35.9 695,35.9 672.9,0.6 658.6,0.6 658.6,2.6 663.7,2.6 
		663.7,47.8 658.6,47.8 658.6,49.6 671.9,49.6 671.9,47.8 665.7,47.8 665.7,3.8 694.8,49.6 697,49.6 697,2.6 702,2.6 702,0.6 	">
  </polygon>
 </g>
</svg>