<svg version="1.1" id="Layer_1" xmlns:x="ns_extend;" xmlns:i="ns_ai;" xmlns:graph="ns_graphs;" xmlns="http://www.w3.org/2000/svg" xmlns:xlink="http://www.w3.org/1999/xlink" x="0px" y="0px" viewBox="0 0 406.2 65" style="enable-background:new 0 0 406.2 65;" xml:space="preserve">
 <style type="text/css">
  .st0{fill-rule:evenodd;clip-rule:evenodd;}
 </style>
 <metadata>
  <sfw xmlns="ns_sfw;">
   <slices>
   </slices>
   <sliceSourceBounds bottomLeftOrigin="true" height="65" width="406.2" x="-3.1" y="-233.1">
   </sliceSourceBounds>
  </sfw>
 </metadata>
 <g>
  <path class="st0" d="M298.9,58.2l-15.6-22.1c-0.1-0.1-0.1-0.2-0.1-0.3c0-0.1,0-0.2,0-0.4c0-0.1,0.1-0.2,0.2-0.3
		c0.1-0.1,0.2-0.1,0.3-0.2c3.5-1.1,6.5-3.3,8.7-6.3c2.2-3,3.3-6.5,3.3-10.1c0,0,1.1-18.5-21.2-18.5c-6.5-0.1-13,1.3-18.9,4v1
		c1,0.3,1.9,1,2.5,1.8c0.6,0.8,1,1.9,1,2.9v48.4c0.1,1-0.1,1.9-0.6,2.8c-0.5,0.9-1.1,1.6-2,2v1.2H270v-1.2c0,0-2-1.2-2-4.7v-21
		c0-0.3,0.1-0.6,0.3-0.8c0.2-0.2,0.5-0.3,0.8-0.3h2.8c0.3,0,0.6,0.1,0.9,0.2c0.3,0.1,0.5,0.4,0.7,0.6l19,26.8
		c0.1,0.1,0.3,0.3,0.4,0.4c0.2,0.1,0.3,0.1,0.5,0.1h10.7v-1.2C302.1,61.8,300.3,60.1,298.9,58.2L298.9,58.2z M272.7,31.2h-3.5
		c-0.3,0-0.6-0.1-0.8-0.3c-0.2-0.2-0.4-0.5-0.4-0.8V7.9c0-0.5,0.2-0.9,0.5-1.3c0.3-0.4,0.7-0.6,1.2-0.6c1.3-0.2,2.6-0.3,3.9-0.3
		c7.6,0,12.4,4.7,12.4,12.7C285.9,27.5,280.7,31.2,272.7,31.2z M130.4,36.1l15.7,22.1v0c1.3,2,3.1,3.6,5.2,4.7v1.2h-10.7
		c-0.2,0-0.4,0-0.5-0.1s-0.3-0.2-0.4-0.4l-19-26.8c-0.2-0.3-0.4-0.5-0.7-0.6c-0.3-0.1-0.6-0.2-0.9-0.2h-2.7c-0.3,0-0.6,0.1-0.8,0.3
		c-0.2,0.2-0.4,0.5-0.4,0.8v21c0,3.5,2,4.7,2,4.7v1.2h-13.5v-1.2c0.8-0.5,1.5-1.2,2-2c0.5-0.9,0.7-1.8,0.6-2.8V9.7
		c0-1-0.4-2.1-1-2.9c-0.6-0.8-1.5-1.5-2.5-1.8V4c5.9-2.7,12.3-4.1,18.9-4c22.3,0,21.2,18.5,21.2,18.5c0,3.6-1.1,7.2-3.3,10.1
		s-5.2,5.2-8.7,6.3c-0.1,0-0.2,0.1-0.3,0.2c-0.1,0.1-0.2,0.2-0.2,0.3s-0.1,0.2,0,0.4C130.3,35.9,130.4,36,130.4,36.1z M116.4,31.2
		h3.5c8,0,13.3-3.7,13.3-12.7c0-8.1-4.8-12.7-12.4-12.7c-1.3,0-2.6,0.1-3.9,0.3c-0.5,0.1-0.9,0.3-1.2,0.6c-0.3,0.4-0.5,0.8-0.5,1.3
		V30c0,0.3,0.1,0.6,0.4,0.8C115.8,31.1,116.1,31.2,116.4,31.2z M33.1,29.9c0.1,0.1,0.2,0.2,0.3,0.2v0.1c6.1,2.6,10.3,8.4,10.3,16.2
		c0,11.2-8.3,17.7-18.4,17.7H0.9V63c0.8-0.5,1.5-1.2,2-2.1c0.5-0.8,0.7-1.8,0.6-2.8v-48c0-1-0.4-2.1-1-2.9C1.9,6.4,1,5.7,0,5.4v-1
		C4.1,2,10.8,0,18.7,0c20.5,0,19.4,17,19.4,17c0.1,2.2-0.4,4.4-1.2,6.5c-0.9,2.1-2.1,3.9-3.8,5.5C33,29,33,29.1,32.9,29.2
		c0,0.1,0,0.2,0,0.4C32.9,29.7,33,29.8,33.1,29.9z M13,6.4c-0.3,0.4-0.5,0.8-0.5,1.3h0v19.7c0,0.3,0.1,0.6,0.4,0.8
		c0.2,0.2,0.5,0.3,0.8,0.3H18c7.1,0,11.9-3.8,11.9-11.3c0-7.5-4.5-11.8-11.6-11.8c-1.4,0-2.7,0.1-4.1,0.3C13.7,5.8,13.3,6,13,6.4z
		 M14.1,59.3h7l0,0c7.7,0,12.8-4.9,12.8-12.9c0-8.2-5.1-12.9-12.8-12.9h-7.3c-0.3,0-0.6,0.1-0.8,0.3c-0.2,0.2-0.4,0.5-0.4,0.8v23.2
		c0,0.4,0.2,0.8,0.5,1.1C13.3,59.1,13.7,59.3,14.1,59.3z M189.8,30.2c-0.1-0.1-0.2-0.1-0.3-0.2c-0.1-0.1-0.1-0.2-0.2-0.3
		c0-0.1,0-0.2,0-0.4c0-0.1,0.1-0.2,0.2-0.3c1.6-1.5,2.9-3.4,3.8-5.5c0.9-2.1,1.3-4.3,1.2-6.5c0,0,1-17-19.4-17
		c-7.9,0-14.6,2-18.7,4.4v1c1,0.3,1.9,1,2.5,1.8s1,1.9,1,2.9v48c0.1,1-0.1,1.9-0.6,2.8c-0.5,0.8-1.1,1.6-2,2v1.2h24.3
		c10.2,0,18.4-6.5,18.4-17.7C200.1,38.6,195.9,32.9,189.8,30.2L189.8,30.2z M169,7.6c0-0.5,0.2-0.9,0.5-1.3c0.3-0.4,0.7-0.6,1.2-0.6
		c1.4-0.2,2.8-0.3,4.2-0.3c7.1,0,11.5,4.3,11.5,11.8c0,7.5-4.8,11.3-11.9,11.3h-4.3c-0.3,0-0.6-0.1-0.8-0.3
		c-0.2-0.2-0.4-0.5-0.4-0.8L169,7.6L169,7.6z M177.5,59.3h-7c-0.2,0-0.4,0-0.6-0.1c-0.2-0.1-0.4-0.2-0.5-0.3
		c-0.1-0.1-0.3-0.3-0.3-0.5c-0.1-0.2-0.1-0.4-0.1-0.6V34.6c0-0.3,0.1-0.6,0.4-0.8c0.2-0.2,0.5-0.3,0.8-0.3h7.3
		c7.7,0,12.8,4.7,12.8,12.9C190.3,54.4,185.2,59.3,177.5,59.3L177.5,59.3z M84.4,2.1V1h10.7v1.2c-0.8,0.5-1.5,1.2-2,2
		C92.7,5,92.5,6,92.5,6.9v39.6C92.5,58.3,86,65,73.4,65c-12.6,0-20.6-6.6-20.6-18.4V7c0.1-1-0.1-1.9-0.6-2.8c-0.5-0.8-1.1-1.6-2-2V1
		h13.5v1.2c0,0-2,1.2-2,4.7V45c0,10,3.7,14.3,12.3,14.3c8.5,0,12.5-4.1,12.5-13.2V6.9C86.4,3.3,84.4,2.1,84.4,2.1z M337.2,36.1
		l15.6,22.1v0c1.3,2,3.1,3.6,5.2,4.7v1.2h-10.6c-0.2,0-0.4,0-0.5-0.1c-0.2-0.1-0.3-0.2-0.4-0.4l-19-26.8c-0.2-0.3-0.4-0.5-0.7-0.6
		c-0.3-0.1-0.6-0.2-0.9-0.2h-2.8c-0.3,0-0.6,0.1-0.8,0.3c-0.2,0.2-0.3,0.5-0.3,0.8v21c0,3.5,2,4.7,2,4.7v1.2h-13.5v-1.2
		c0.8-0.5,1.5-1.2,2-2c0.5-0.9,0.7-1.8,0.6-2.8V9.7c0-1-0.4-2.1-1-2.9c-0.6-0.8-1.5-1.5-2.5-1.8V4c5.9-2.7,12.4-4.1,18.9-4
		c22.3,0,21.2,18.5,21.2,18.5c0,3.6-1.1,7.2-3.3,10.1c-2.2,3-5.2,5.2-8.7,6.3c-0.1,0-0.2,0.1-0.3,0.2c-0.1,0.1-0.2,0.2-0.2,0.3
		c0,0.1,0,0.2,0,0.4S337.1,36,337.2,36.1z M323.1,31.2h3.5c8,0,13.3-3.7,13.3-12.7c0-8.1-4.8-12.7-12.4-12.7c-1.3,0-2.6,0.1-3.9,0.3
		c-0.5,0.1-0.9,0.3-1.2,0.6c-0.3,0.4-0.5,0.8-0.5,1.3V30c0,0.3,0.1,0.6,0.4,0.8C322.5,31.1,322.8,31.2,323.1,31.2z M394.1,0.9v1.2
		c0,0,2.5,0.8,0.4,4.7l-12.1,21.6c-0.1,0.1-0.2,0.2-0.3,0.3c-0.1,0.1-0.3,0.1-0.4,0.1c-0.1,0-0.3,0-0.4-0.1
		c-0.1-0.1-0.2-0.2-0.3-0.3L368.8,6.8c-2.2-3.9,0.4-4.7,0.4-4.7V0.9h-15.8v1.2c2.2,1,4.1,2.6,5.2,4.7l16.3,29
		c0.3,0.5,0.4,1.1,0.4,1.7v20.6c0.1,1-0.1,1.9-0.6,2.8c-0.5,0.9-1.1,1.6-2,2v1.2h14v-1.2c-0.8-0.5-1.5-1.2-2-2
		c-0.5-0.9-0.7-1.8-0.6-2.8V37.6c0-0.6,0.2-1.2,0.4-1.7l16.3-29c1.2-2.1,3-3.8,5.2-4.7V1L394.1,0.9z M222.3,59.3h19.3
		c1,0.1,1.9-0.1,2.8-0.6c0.9-0.4,1.6-1.1,2.1-2h1.2v7.4h-38.4V63c0.8-0.5,1.5-1.2,2-2.1c0.5-0.8,0.7-1.8,0.6-2.8V6.9
		c0.1-1-0.1-1.9-0.6-2.8c-0.5-0.8-1.1-1.6-2-2V1H245v7.3h-1.2c-0.5-0.8-1.2-1.5-2.1-1.9c-0.9-0.4-1.8-0.6-2.8-0.6h-16.6
		c-0.4,0-0.8,0.2-1.1,0.5c-0.3,0.3-0.5,0.7-0.5,1.1v20.3c0,0.3,0.1,0.6,0.4,0.8c0.2,0.2,0.5,0.3,0.8,0.3h10.5c3.6,0,4.8-2,4.8-2h1.2
		v8.9h-1.2c0,0-1.2-2-4.8-2h-10.5c-0.3,0-0.6,0.1-0.8,0.3c-0.2,0.2-0.4,0.5-0.4,0.8v23c0,0.4,0.2,0.8,0.5,1.1
		C221.5,59.2,221.9,59.3,222.3,59.3z">
  </path>
 </g>
</svg>