<svg version="1.1" id="Layer_1" xmlns:x="ns_extend;" xmlns:i="ns_ai;" xmlns:graph="ns_graphs;" xmlns="http://www.w3.org/2000/svg" xmlns:xlink="http://www.w3.org/1999/xlink" x="0px" y="0px" viewBox="0 0 827.3 81" style="enable-background:new 0 0 827.3 81;" xml:space="preserve">
 <metadata>
  <sfw xmlns="ns_sfw;">
   <slices>
   </slices>
   <sliceSourceBounds bottomLeftOrigin="true" height="81" width="827.3" x="-643.4" y="0">
   </sliceSourceBounds>
  </sfw>
 </metadata>
 <g>
  <path d="M42.1,33.8c-19.6-5.1-23-5.9-23-11.8s6.3-8.8,11.7-8.8c8.1,0,14.7,2.4,15.3,11.7h16.5c0-18-14.8-24.9-31-24.9
		C17.5,0,2.6,7.6,2.6,23.4c0,14.5,11.6,18.9,23.1,22c11.5,3.1,22.9,4.5,22.9,12.8s-9,9.6-15,9.6c-9,0-17.1-4-17.1-14.3H0
		C-0.3,72.5,15.8,81,32.9,81C53.9,81,65,70.4,65,56.2C65,38.7,47.7,35.1,42.1,33.8z">
  </path>
  <path d="M146.1,1.8h17v77.4h-17V1.8z">
  </path>
  <path d="M225.2,53.7L225.2,53.7L192.7,1.8h-16.9v77.3h15.9V27.4h0.3l32.2,51.8h17v-63h22.5v63h17v-63h23.2V1.8h-78.7V53.7z">
  </path>
  <path d="M94.1,1.8L64.7,79.1H82l6-17.2h29l5.8,17.2h17.6L111.6,1.8H94.1z M92.5,49.2l10-28.4h0.3l9.7,28.4H92.5z">
  </path>
  <path d="M648,45.9h37.5V32.7H648V16.1h40.5V1.8h-57.6v77.3h58.5V64.8H648V45.9z">
  </path>
  <path d="M748.7,1.8v51.9l0,0L716.2,1.8h-16.8v77.3h16.1V27.4l0,0l32.1,51.8h17v-63h22.5v63h17v-63h23.2V1.8H748.7z">
  </path>
  <path d="M606.3,42.8v-0.3c8-3,12.9-10.9,12.2-19.4c0.1-11.7-9.4-21.3-21.1-21.4c-0.5,0-0.9,0-1.4,0h-41.7v77.3h17V48.9h17
		c8.5,0,11.7,3.6,12.9,11.7c0.2,6.3,1.1,12.5,2.7,18.5h17c-3.1-4.5-2.9-13.5-3.2-18.3C617.1,53.1,614.7,45,606.3,42.8z M589.9,36.8
		h-18.4V15h18.6c7.6,0,11.7,3.2,11.7,10.7S597.4,36.8,589.9,36.8L589.9,36.8z">
  </path>
  <path d="M524.8,49.9c0,11.5-3.9,16.8-16,16.8c-13.8,0-15.9-8.3-15.9-16.8V1.8h-17v48.1c0,21,12.1,31,32.9,31c20.8,0,33-10.2,33-31
		V1.8h-17L524.8,49.9L524.8,49.9z">
  </path>
  <path d="M426.9,1.8l-29.4,77.3h17.2l6-17.2h28.9l5.8,17.2h17.6L444.3,1.8H426.9z M425.3,49.2l10.1-28.4h0.3l9.9,28.4H425.3z">
  </path>
  <path d="M355.5,1.8h-17.2v77.3H393V64.8h-37.5V1.8z">
  </path>
 </g>
</svg>