<svg width="1019" height="1019" viewBox="0 0 1019 1019" fill="none" xmlns="http://www.w3.org/2000/svg">
<path d="M182.159 171.48C183.069 169.26 182.549 167.47 182.299 165.7C181.449 159.74 181.499 153.74 181.619 147.75C181.649 146.5 181.849 145.2 182.219 144.01C182.849 141.96 184.159 140.46 186.459 140.36C188.529 140.27 189.899 141.56 190.629 143.32C191.319 144.98 191.849 146.76 192.109 148.53C193.559 158.41 195.099 168.29 196.199 178.21C196.829 183.95 199.169 188.17 203.479 192.15C218.949 206.46 233.999 221.23 249.229 235.79C252.359 238.79 255.619 241.65 259.059 244.8C260.819 242.55 260.099 240.34 260.009 238.34C259.219 220.9 256.529 203.66 254.239 186.38C252.609 174.13 251.709 161.82 250.759 149.5C250.519 146.4 250.969 143.29 252.089 140.39C254.579 133.91 260.829 132.7 265.409 137.91C268.669 141.62 270.789 146.1 272.679 150.64C279.769 167.57 286.249 184.74 292.309 202.07C301.119 227.28 309.699 252.58 318.389 277.83C318.969 279.52 319.269 281.34 321.129 283.77C321.129 281.33 321.129 279.81 321.129 278.3C321.219 257.4 321.309 236.5 321.409 215.61C321.429 211.43 321.539 207.26 322.069 203.1C322.549 199.31 322.379 195.66 320.759 191.93C318.259 186.17 320.859 179.76 326.149 177.05C331.269 174.43 337.419 176.01 341.199 180.92C345.049 185.92 344.849 192.4 340.219 196.71C337.999 198.78 336.929 200.79 337.159 203.78C338.479 221.01 337.669 238.29 338.279 255.54C338.909 273.16 338.849 290.78 339.089 308.4C339.089 308.95 339.089 309.49 339.129 310.03C339.409 313.49 339.649 313.86 343.069 313.43C350.279 312.53 357.469 311.51 364.639 310.4C373.249 309.08 381.819 307.46 390.499 306.69C392.569 306.51 394.319 305.65 396.109 304.75C415.769 294.92 435.369 284.96 454.529 274.18C455.479 273.65 456.439 273.11 457.459 272.73C471.229 267.6 482.479 258.1 495.119 251.01C497.049 249.93 497.349 248.8 495.689 247.26C495.159 246.77 494.659 246.23 494.139 245.72C474.639 226.88 457.269 206.09 439.319 185.84C435.579 181.63 431.769 177.48 428.049 173.25C425.139 169.94 422.039 167.32 417.489 166.09C411.529 164.48 408.099 158.51 408.999 153.11C409.879 147.85 414.279 143.65 419.259 143.31C424.729 142.94 430.519 146.68 431.389 152.22C432.069 156.58 434.439 159.36 437.209 162.27C451.969 177.82 466.279 193.79 480.659 209.69C486.479 216.12 492.669 222.21 498.719 228.49C500.529 226.91 499.389 225.75 499.049 224.72C488.939 193.52 476.409 163.4 459.859 134.98C449.419 117.04 441.549 97.8403 433.799 78.6203C433.049 76.7703 432.529 74.8303 432.439 72.8003C432.239 68.4303 433.939 65.5003 437.529 64.0903C441.329 62.6003 445.289 63.4303 447.789 66.8203C452.319 72.9803 457.559 78.5403 462.379 84.4503C474.219 98.9403 486.169 113.34 498.069 127.78C498.739 128.59 499.269 129.57 500.549 129.79C501.729 128.06 501.239 126.2 501.209 124.48C500.939 109.95 500.579 95.4203 500.289 80.8903C500.179 75.6203 499.959 70.3403 500.189 65.0803C500.369 60.7703 499.089 57.5203 495.899 54.5003C488.909 47.8803 482.349 40.8103 476.419 33.2003C476.199 32.9103 475.939 32.6503 475.709 32.3703C472.079 27.8003 472.119 23.2303 475.799 20.3903C479.499 17.5403 483.849 18.5103 487.539 23.1503C490.479 26.8403 493.269 30.6603 496.199 34.3703C497.049 35.4403 497.619 36.9603 499.729 37.0303C500.269 32.1903 500.819 27.8103 497.029 23.4503C491.519 17.1103 492.839 8.3603 499.259 3.1103C505.069 -1.6397 514.489 -0.849699 519.529 4.8003C524.419 10.2903 524.919 17.7403 519.549 23.0303C514.629 27.8803 515.769 32.9703 516.419 38.3803C518.429 38.7903 518.949 37.4003 519.729 36.5003C523.539 32.1103 526.969 27.3903 531.249 23.4203C532.569 22.1903 533.959 20.9803 535.469 20.0103C537.389 18.7703 539.549 18.1803 541.529 19.8903C543.509 21.5903 543.259 23.7303 542.289 25.8703C540.929 28.8703 539.009 31.5203 536.999 34.1103C532.109 40.4303 527.389 46.9003 522.289 53.0503C518.219 57.9603 516.369 63.0503 517.439 69.5803C518.289 74.7303 517.829 80.0903 517.929 85.3603C518.299 104.25 518.659 123.14 519.049 142.03C519.069 143.05 518.699 144.25 520.049 145.17C521.969 144.61 523.039 142.84 524.349 141.44C533.549 131.61 541.799 121 549.829 110.21C559.269 97.5203 569.349 85.3503 579.699 73.3903C581.979 70.7603 584.539 68.4503 587.629 66.8203C590.559 65.2803 593.609 65.0403 596.419 67.0103C599.259 69.0003 599.929 72.0203 599.359 75.2603C598.479 80.2903 596.849 85.1103 594.879 89.8203C586.469 109.95 577.369 129.75 567.819 149.36C558.039 169.45 548.129 189.48 538.289 209.55C537.489 211.17 536.749 212.82 535.739 214.98C537.519 214.89 538.199 213.81 538.979 213.03C545.049 207.02 551.109 201 557.149 194.96C569.739 182.37 582.519 169.98 595.869 158.18C597.699 156.56 598.839 154.69 599.729 152.41C602.069 146.37 607.829 143.27 613.589 144.6C619.509 145.97 623.199 151.36 622.579 157.7C621.949 164.08 617.699 168.41 611.039 168.49C607.329 168.53 604.969 170.05 602.619 172.53C578.999 197.46 555.069 222.09 530.929 246.52C530.419 247.04 529.899 247.55 529.419 248.09C527.069 250.74 527.039 250.79 529.879 253.13C540.419 261.79 552.139 268.89 562.669 277.52C568.449 282.26 574.929 284.88 581.849 287.2C597.359 292.39 612.929 297.37 628.659 301.84C634.949 303.63 641.189 305.61 647.159 308.34C651.349 310.25 655.959 310.41 660.319 311.66C666.589 313.46 673.049 314.63 679.429 316.04C684.169 317.09 684.519 316.86 684.549 312.14C684.609 303.06 684.909 293.99 685.199 284.91C685.799 266.57 687.379 248.29 688.479 229.99C688.909 222.92 688.619 215.81 689.589 208.77C689.859 206.84 689.049 205.26 687.909 203.76C686.449 201.83 685.769 199.56 685.559 197.17C685.089 191.94 687.429 187.62 691.859 185.5C696.229 183.4 701.859 184.25 705.049 187.47C708.629 191.1 709.799 196.55 706.989 201C704.089 205.59 703.679 210.48 703.469 215.56C703.449 216.1 703.449 216.65 703.439 217.2C702.969 241.17 701.379 265.1 700.339 289.05C700.119 294.25 700.309 299.46 701.119 304.93C702.139 302.9 703.169 300.86 704.189 298.83C717.549 272.33 729.209 245.15 736.929 216.41C740.989 201.3 745.949 186.49 751.829 172C754.839 164.6 757.859 157.19 761.209 149.94C763.909 144.1 767.719 142.08 772.219 143.34C777.049 144.69 779.019 148.56 778.399 155.1C776.569 174.44 774.809 193.79 772.979 213.13C772.479 218.37 771.829 223.6 771.279 228.83C771.089 230.62 770.639 232.42 771.279 234.22C772.929 235.02 773.589 233.58 774.369 232.78C788.399 218.29 802.349 203.72 816.409 189.27C819.639 185.95 820.979 182.32 821.029 177.6C821.129 167.99 821.399 158.35 822.669 148.79C822.839 147.53 822.929 146.24 823.329 145.05C824.519 141.51 827.859 139.43 831.349 139.89C834.609 140.32 837.259 142.93 837.669 146.46C838.029 149.55 837.369 152.61 836.959 155.67C836.389 159.96 835.849 164.26 835.809 168.81C839.609 166 843.479 163.75 843.929 158.02C844.649 148.84 851.639 143.31 860.199 144.3C867.329 145.12 873.139 151.56 873.289 158.82C873.439 165.8 868.369 172.56 861.249 172.54C854.219 172.53 850.759 176.28 847.429 181.31C848.329 183.03 849.939 182.33 851.219 182.29C857.209 182.13 863.119 180.84 869.149 181.21C871.349 181.35 873.539 181.45 875.499 182.5C879.109 184.43 879.209 188.13 875.629 190.15C872.739 191.78 869.419 192.16 866.189 192.61C857.729 193.76 849.279 194.97 840.799 195.9C834.949 196.54 830.499 198.79 826.369 203.35C814.539 216.4 802.059 228.87 789.869 241.6C785.089 246.58 780.389 251.64 775.659 256.66C775.049 257.3 774.329 257.91 774.449 259.38C779.169 260.27 783.979 259.68 788.769 259.38C804.559 258.37 820.089 255.27 835.799 253.67C847.529 252.48 859.239 250.74 871.089 250.95C873.639 250.99 876.179 251.05 878.559 252.18C884.609 255.04 885.499 260.84 880.509 265.3C878.049 267.5 875.129 269.01 872.179 270.43C862.669 275.01 852.749 278.58 842.919 282.36C812.379 294.1 781.299 304.29 750.329 314.78C745.519 316.41 740.769 318.2 735.259 320.17C737.349 321.1 738.909 320.79 740.369 320.79C753.449 320.84 766.539 320.97 779.619 320.84C792.169 320.72 804.669 321.7 817.199 321.98C820.319 322.05 823.249 321.8 826.249 320.66C832.359 318.34 838.219 320.57 841.279 325.92C844.149 330.94 842.749 336.84 837.699 340.93C832.869 344.84 827.009 344.94 822.369 340.52C819.719 338 816.969 337.32 813.539 337.36C779.199 337.71 744.879 338.91 710.529 338.78C709.979 338.78 709.439 338.78 708.889 338.81C704.899 339.06 704.439 339.5 704.999 343.39C706.269 352.2 707.699 360.98 708.959 369.79C709.959 376.8 711.469 383.73 711.909 390.82C712.039 392.91 713.149 394.58 714.039 396.36C723.289 414.89 732.589 433.4 742.729 451.47C745.129 455.75 747.299 460.16 748.869 464.83C750.059 468.36 752.769 470.93 754.599 474.05C758.649 480.94 762.939 487.69 767.249 494.42C768.989 497.14 769.429 497.17 771.759 494.9C779.029 487.79 786.119 480.48 793.749 473.73C809.259 460.01 824.679 446.18 840.129 432.39C842.429 430.33 844.689 428.22 847.019 426.2C849.399 424.13 851.009 421.77 851.869 418.58C853.509 412.51 858.229 408.86 863.529 408.82C869.389 408.78 874.169 412.71 875.109 418.34C875.989 423.61 872.559 429.9 867.069 431C861.649 432.09 858.109 435.29 854.359 438.75C838.869 453.04 823.139 467.07 807.759 481.48C801.849 487.02 796.639 493.32 791.089 499.3C791.859 500.08 793.009 499.06 794.109 498.71C823.969 489.19 852.879 477.51 879.999 461.62C898.549 450.76 918.329 442.45 938.179 434.33C940.349 433.44 942.649 432.72 944.959 432.32C949.169 431.58 952.679 433.56 954.309 437.24C955.979 441.01 955.169 444.72 951.809 447.5C933.189 462.9 914.539 478.26 895.899 493.64C893.529 495.59 891.199 497.58 888.829 499.56C889.839 501.56 891.459 500.97 892.749 500.95C913.819 500.71 934.899 500.66 955.959 499.86C958.939 499.75 961.079 498.57 963.089 496.53C970.079 489.38 977.399 482.58 985.229 476.35C986.079 475.67 986.869 474.89 987.779 474.31C991.429 471.97 995.449 472.52 998.049 475.65C1000.52 478.63 1000.46 482.47 997.389 485.47C994.799 487.99 991.769 490.05 988.909 492.3C986.359 494.3 983.559 496 980.959 499.05C986.139 500.32 990.369 500.68 994.479 497.25C999.779 492.82 1005.68 492.39 1011.69 495.93C1018.69 500.04 1020.67 510.24 1015.85 516.98C1010.97 523.81 1001.27 525.45 995.369 519.51C991.399 515.51 987.489 515.01 982.649 516.04C981.779 516.23 980.879 516.3 979.499 516.5C980.479 519.05 982.549 520.21 984.239 521.57C988.209 524.77 991.989 528.16 995.539 531.82C996.929 533.26 998.309 534.72 999.069 536.62C1000.57 540.37 998.289 543.27 994.279 542.64C991.679 542.23 989.589 540.69 987.559 539.17C979.869 533.38 972.129 527.64 964.619 521.61C960.719 518.48 956.639 517.16 951.599 517.29C926.359 517.92 901.109 518.29 875.859 518.77C874.829 518.79 873.679 518.43 872.579 519.57C873.489 521.75 875.569 522.95 877.219 524.51C892.579 539.03 910.319 550.58 926.539 564.04C933.389 569.72 940.439 575.18 946.799 581.43C948.879 583.47 950.899 585.58 952.089 588.3C954.599 594.06 951.409 599.12 945.119 599.25C943.519 599.28 941.879 598.91 940.289 598.55C933.879 597.1 927.879 594.49 921.859 591.91C883.419 575.45 846.239 556.33 808.649 538.09C806.859 537.22 805.049 536.38 802.549 535.2C803.169 537.19 804.339 537.98 805.249 538.9C818.529 552.34 831.869 565.74 845.109 579.22C849.309 583.49 853.319 587.95 857.379 592.37C860.429 595.69 863.239 598.96 867.869 600.63C872.829 602.42 875.219 608.95 873.839 613.92C872.259 619.6 867.619 622.84 861.519 622.53C855.489 622.22 850.239 618.33 850.289 612.76C850.339 607.31 847.679 604.3 844.139 600.92C826.149 583.71 808.399 566.26 790.539 548.92C784.409 542.97 778.219 537.09 772.069 531.17C767.589 526.86 767.519 526.8 763.919 531.65C756.219 542 748.879 552.63 740.859 562.72C736.329 568.42 733.699 574.71 731.439 581.47C726.259 596.98 721.269 612.55 716.799 628.28C715.009 634.57 712.459 640.63 710.459 646.83C707.969 654.57 706.439 662.63 704.539 670.56C703.649 674.27 702.879 678.01 701.999 681.72C701.499 683.81 702.209 684.87 704.389 684.88C705.299 684.88 706.209 684.91 707.119 684.9C723.839 684.84 740.549 685.02 757.229 686.21C771.719 687.25 786.209 688.22 800.709 689.13C806.459 689.49 812.169 690.09 817.519 686.53C820.439 684.59 824.179 684.97 827.509 686.51C832.969 689.02 835.649 695.66 833.479 701.22C831.379 706.6 824.039 710.53 819.099 707.42C811.869 702.86 804.099 703.73 796.499 703.21C783.279 702.31 769.979 702.45 756.759 701.57C744.599 700.76 732.439 700.59 720.269 700.48C718.519 700.46 716.689 700.01 714.929 701C715.469 702.69 717.099 702.83 718.289 703.45C749.069 719.37 781.189 731.75 814.709 740.63C832.659 745.38 849.609 753.04 866.739 760.11C868.729 760.93 870.609 762.16 872.299 763.5C875.479 766.03 876.339 769.22 874.999 772.7C873.629 776.26 871.069 778.33 867.189 778.45C865.749 778.5 864.289 778.29 862.849 778.15C837.179 775.69 811.519 773.22 785.849 770.76C784.989 770.68 784.059 770.44 783.249 771.22C783.299 772.88 784.759 773.57 785.749 774.52C800.549 788.75 815.459 802.86 830.149 817.2C833.109 820.09 836.109 821.39 840.259 821.3C849.699 821.1 859.159 821.12 868.549 822.41C869.979 822.61 871.469 822.64 872.839 823.06C876.829 824.27 879.169 827.61 878.689 831.16C878.189 834.86 874.689 837.87 870.529 837.75C867.639 837.67 864.759 837.08 861.879 836.73C857.929 836.24 853.979 835.76 849.889 835.26C852.309 840.78 855.659 843.35 860.909 843.92C869.209 844.81 875.089 851.68 874.289 859.53C873.439 867.85 866.329 873.76 858.049 873.01C850.829 872.36 845.689 867.23 845.759 859.52C845.819 853.05 841.599 850.57 836.919 847.22C835.789 851.23 836.369 854.61 836.829 857.95C837.429 862.3 837.569 866.65 837.199 871C836.829 875.33 834.959 877.86 832.389 878.04C829.789 878.22 827.859 876.2 826.849 871.64C824.889 862.76 824.129 853.69 822.979 844.69C821.439 832.62 821.609 832.61 812.789 824.17C796.239 808.35 779.719 792.51 763.169 776.69C762.139 775.71 761.329 774.42 759.679 774.04C758.179 775.28 758.799 777.02 758.809 778.53C758.909 792.19 760.869 805.67 762.709 819.17C764.939 835.54 767.029 851.94 767.629 868.48C767.719 871.02 767.799 873.57 767.179 876.08C766.239 879.88 764.229 882.92 760.189 883.59C756.559 884.2 753.949 881.94 752.049 879.12C749.199 874.89 746.929 870.35 744.999 865.61C731.439 832.26 719.719 798.25 708.339 764.12C705.519 755.68 702.519 747.29 699.589 738.89C699.309 738.08 698.929 737.31 697.769 736.62C697.769 738.35 697.769 740.07 697.769 741.8C697.749 751.61 697.629 761.43 697.739 771.24C697.919 787.42 696.949 803.56 696.349 819.72C696.259 822.25 697.159 824.28 697.979 826.48C699.889 831.64 698.309 837.21 694.229 840.17C689.919 843.3 684.059 843.31 679.969 840.21C675.369 836.72 673.559 830.66 675.699 825.64C676.189 824.49 676.789 823.17 677.739 822.48C680.959 820.12 681.299 816.95 681.199 813.31C680.259 780.07 679.889 746.83 679.829 713.58C679.809 704.3 679.499 704.07 670.169 705.46C658.319 707.24 646.519 709.5 634.629 710.86C627.759 711.64 621.809 714.14 615.739 717.09C599.059 725.2 582.819 734.11 566.479 742.86C562.309 745.09 558.099 747.25 553.639 748.83C550.139 750.07 547.459 752.62 544.349 754.47C537.479 758.56 530.769 762.9 524.039 767.22C521.279 768.99 521.299 769.34 523.389 771.74C523.509 771.88 523.639 772 523.769 772.13C539.969 787.82 554.939 804.65 569.729 821.66C577.239 830.3 584.989 838.72 592.539 847.32C594.529 849.59 596.699 851.1 599.729 851.82C605.659 853.24 609.239 857.47 609.589 862.72C609.959 868.37 607.079 872.71 601.819 874.46C596.839 876.11 591.449 874.13 588.539 869.57C588.249 869.11 587.829 868.64 587.779 868.14C586.969 860.16 580.759 855.69 575.999 850.41C559.919 832.62 543.639 815.01 527.389 797.37C524.739 794.49 521.889 791.8 519.009 788.9C518.229 790.4 518.839 791.21 519.089 792.03C529.189 824.21 542.299 855.07 559.229 884.3C569.449 901.94 577.239 920.78 584.709 939.72C585.309 941.23 585.779 942.82 586.099 944.42C586.939 948.65 585.219 952.27 581.689 954.02C577.909 955.89 573.809 955.04 570.919 951.6C564.729 944.23 558.579 936.82 552.449 929.4C541.819 916.5 531.229 903.57 520.579 890.69C519.829 889.78 519.259 888.44 517.709 888.6C516.869 889.32 517.029 890.28 517.109 891.14C518.339 905.1 517.669 919.11 517.999 933.09C518.179 940.53 518.599 947.97 518.739 955.42C518.799 958.34 519.849 960.55 521.819 962.69C528.579 970.04 535.799 976.98 541.979 984.86C542.979 986.14 544.069 987.41 544.799 988.84C546.419 992.04 545.689 995.57 543.179 997.77C540.859 999.81 537.479 1000.09 534.519 998.51C532.869 997.63 531.699 996.26 530.609 994.79C528.329 991.73 526.079 988.64 523.729 985.64C522.649 984.26 521.809 982.52 519.439 982.06C517.749 986.5 517.309 990.37 521.029 994.39C526.539 1000.34 526.189 1008.55 520.789 1014.09C515.559 1019.44 506.239 1019.83 500.349 1014.93C494.959 1010.44 494.039 1002.37 498.079 996.13C499.439 994.02 502.229 992.83 502.379 990.01C502.559 986.58 502.419 983.14 502.419 979.28C500.009 979.77 499.219 981.52 498.129 982.75C495.119 986.15 492.219 989.65 489.289 993.12C487.509 995.22 485.409 996.96 483.099 998.42C481.119 999.68 478.999 1000.08 477.039 998.42C475.019 996.71 475.229 994.51 476.349 992.47C477.659 990.09 479.119 987.77 480.749 985.6C486.309 978.19 491.889 970.79 497.649 963.53C500.279 960.22 501.479 956.75 501.289 952.5C500.249 929.26 500.199 906 499.869 882.75C499.829 879.69 499.389 876.64 499.139 873.73C497.139 872.91 496.579 874.37 495.809 875.21C486.449 885.38 477.759 896.09 469.549 907.21C461.019 918.76 451.959 929.9 442.589 940.78C439.989 943.8 437.119 946.6 434.259 949.4C432.409 951.21 430.189 952.45 427.529 952.69C422.849 953.11 419.839 950.66 419.359 945.98C419.039 942.83 419.879 939.85 420.829 936.9C424.399 925.8 429.409 915.29 434.159 904.68C448.769 871.99 465.159 840.16 480.759 807.94C481.599 806.21 482.349 804.43 483.139 802.67C482.739 802.34 482.339 802.01 481.929 801.68C480.859 803.13 479.959 804.75 478.699 806.01C464.649 819.98 450.589 833.92 436.439 847.79C432.159 851.99 427.679 855.98 423.199 859.96C421.259 861.68 419.799 863.55 418.819 866.03C416.289 872.4 410.489 875.35 404.419 873.69C399.059 872.23 395.319 866.82 395.839 861.28C396.489 854.42 401.029 849.95 408.029 849.84C410.999 849.79 413.159 848.97 415.199 846.8C433.139 827.76 451.219 808.84 469.709 790.33C476.129 783.9 482.629 777.55 488.589 770.68C491.319 767.54 491.409 767.2 488.099 764.73C477.469 756.8 466.509 749.29 456.149 741.02C450.469 736.49 444.299 733.71 437.519 731.47C421.299 726.12 405.049 720.88 388.619 716.21C382.859 714.57 377.129 712.77 371.699 710.16C367.379 708.08 362.539 708.02 358.009 706.72C351.559 704.87 344.929 703.65 338.369 702.21C334.029 701.26 333.799 701.44 333.749 706.06C333.699 711.15 333.739 716.24 333.709 721.32C333.609 740.22 332.089 759.05 330.759 777.89C330.039 788.03 329.759 798.21 329.239 808.36C329.099 810.99 329.619 813.3 331.169 815.53C332.989 818.15 333.559 821.23 332.989 824.39C332.129 829.09 329.399 832.34 324.789 833.66C320.209 834.97 316.099 833.93 313.019 830.11C309.859 826.2 308.939 821.48 311.709 817.43C314.639 813.14 314.659 808.71 314.869 804.01C315.789 783.87 316.489 763.73 317.669 743.6C318.229 734.02 317.769 724.38 317.769 714.39C316.049 715.22 315.779 716.93 315.109 718.23C299.249 748.84 287.019 780.82 278.109 814.15C273.219 832.43 265.599 849.79 258.169 867.17C257.399 868.98 256.279 870.72 255.019 872.24C252.409 875.4 248.869 876.15 245.209 874.58C241.589 873.03 239.539 869.88 239.899 865.93C241.409 849.66 243.009 833.4 244.569 817.13C245.659 805.77 246.749 794.41 247.839 783.07C246.229 782.61 245.739 783.83 245.059 784.54C230.459 799.74 215.949 815.02 201.249 830.12C198.489 832.95 197.249 835.82 197.349 839.76C197.599 849.39 197.289 859.02 196.199 868.6C196.059 869.86 195.989 871.15 195.639 872.36C194.439 876.59 191.079 878.97 187.179 878.48C183.339 878 180.569 874.77 180.789 870.31C180.979 866.52 181.749 862.75 182.279 858.98C182.679 856.14 183.159 853.31 182.409 849.86C177.969 852.94 174.529 855.7 174.389 861.48C174.239 867.41 169.299 872.55 163.729 873.82C157.549 875.23 151.179 872.6 147.629 867.2C144.319 862.16 144.549 855.67 148.139 850.84C150.729 847.37 154.419 845.44 158.469 845.61C165.109 845.9 167.999 841.62 171.449 836.77C168.429 835.48 165.749 836.06 163.169 836.45C158.109 837.22 153.019 837.25 147.939 837.04C143.189 836.84 140.499 834.98 140.469 832.22C140.439 829.68 142.549 827.59 147.089 826.85C157.299 825.19 167.549 823.72 177.819 822.48C183.269 821.82 187.629 819.96 191.529 815.8C208.429 797.77 225.629 780.03 242.709 762.18C243.449 761.41 244.399 760.76 244.709 759.35C243.529 757.92 241.799 758.52 240.329 758.57C227.069 759.03 213.899 760.47 200.769 762.35C183.689 764.79 166.579 767 149.289 767.38C146.749 767.44 144.179 767.56 141.699 766.86C138.559 765.97 136.029 764.23 135.089 760.96C134.099 757.5 136.009 755.05 138.399 752.88C140.449 751.03 142.879 749.79 145.319 748.57C157.549 742.48 170.449 738.06 183.179 733.2C215.109 721.02 247.769 710.96 279.929 699.47C280.949 699.11 281.969 698.75 283.039 697.73C281.789 697.66 280.539 697.53 279.289 697.52C259.479 697.42 239.669 697.39 219.869 697.2C213.879 697.14 207.889 696.72 201.909 696.37C198.599 696.18 195.479 696.52 192.329 697.76C187.999 699.46 183.719 698.95 180.029 695.86C174.979 691.62 174.449 684.38 178.739 679.28C183.199 673.98 190.989 672.73 195.649 677.52C199.069 681.03 202.429 681.75 206.779 680.96C208.189 680.7 209.679 680.86 211.129 680.84C242.919 680.41 274.719 679.99 306.509 679.56C313.899 679.46 314.259 679.05 313.129 671.71C311.189 659.15 308.789 646.63 307.489 634C306.849 627.79 304.689 622.54 302.069 617.13C293.809 600.12 284.899 583.47 275.849 566.88C273.409 562.41 271.149 557.86 269.459 553.04C268.059 549.04 264.949 546.07 262.899 542.42C259.449 536.24 255.439 530.38 251.589 524.43C249.279 520.87 249.129 520.86 246.049 523.99C236.499 533.72 226.719 543.19 216.519 552.24C201.429 565.62 186.409 579.07 171.289 592.41C168.899 594.52 167.259 596.61 166.599 599.97C165.239 606.84 158.559 610.83 152.259 609.2C146.889 607.81 143.479 603.49 143.519 598.13C143.559 592.74 146.919 587.91 152.279 587.17C156.299 586.62 158.789 584.45 161.479 581.98C180.219 564.78 199.049 547.69 217.749 530.44C221.839 526.67 225.509 522.44 229.389 518.41C228.199 517.86 227.229 518.61 226.259 518.93C194.559 529.25 163.869 541.8 134.999 558.69C117.089 569.17 97.8792 577.02 78.6292 584.71C77.1192 585.31 75.5192 585.77 73.9192 586.02C69.2692 586.77 65.8693 584.94 64.1493 580.94C62.4793 577.06 63.2892 573.8 66.9092 570.78C75.6992 563.46 84.5592 556.2 93.3892 548.92C104.749 539.56 116.119 530.22 127.449 520.83C128.369 520.06 129.649 519.51 129.859 517.91C128.229 516.82 126.389 517.37 124.669 517.38C111.949 517.44 99.2292 517.43 86.5092 517.75C78.7092 517.94 70.9092 518.68 63.0992 518.49C60.1392 518.42 57.9792 519.65 55.8892 521.65C48.5592 528.7 41.2092 535.74 33.3492 542.21C28.2492 546.41 23.6092 546.68 20.4792 542.74C17.5192 539.03 18.7092 534.58 23.6592 530.65C28.2992 526.97 33.3692 523.81 38.1592 518.98C32.3492 518.27 27.7192 517.56 23.2792 521.56C18.8592 525.54 13.3692 525.92 8.00924 523.07C2.51924 520.16 -0.260751 515.31 0.0192494 509.22C0.289249 503.38 3.19924 498.81 8.78924 496.47C14.4192 494.11 19.8192 495.16 23.8592 499.46C28.5592 504.46 33.4592 502.72 39.0192 500.77C36.2892 498.47 33.6092 496.12 30.8292 493.89C27.8492 491.49 25.0892 488.86 22.4692 486.08C21.2192 484.75 20.0393 483.34 19.4293 481.6C18.1093 477.83 20.6192 474.93 24.5392 475.8C27.2492 476.4 29.4892 478.04 31.6592 479.69C39.0392 485.3 46.4993 490.81 53.7093 496.62C57.7493 499.87 61.9992 501.22 67.2292 501.08C92.1092 500.42 116.999 500.07 141.879 499.58C143.069 499.56 144.439 500.04 145.469 498.82C145.209 496.8 143.469 495.89 142.189 494.73C134.649 487.9 127.069 481.12 118.849 475.09C103.459 463.79 88.5792 451.86 74.1592 439.35C71.6792 437.2 69.3192 434.94 67.5592 432.14C65.5992 429.03 64.6592 425.75 66.8592 422.44C69.0592 419.13 72.4193 418.6 76.0492 419.34C80.8692 420.33 85.5292 421.86 90.0692 423.74C107.359 430.91 124.389 438.67 141.249 446.79C163.679 457.58 185.959 468.67 208.319 479.61C210.089 480.48 211.769 481.64 214.099 481.94C214.569 480.35 213.269 479.67 212.499 478.88C205.989 472.28 199.449 465.72 192.899 459.16C180.959 447.21 169.179 435.09 158.049 422.37C156.419 420.5 154.439 419.43 152.199 418.6C147.929 417.01 145.319 413.93 144.639 409.41C143.579 402.39 148.059 396.66 154.969 396.04C162.639 395.35 168.889 400.12 168.669 407.32C168.549 411.13 169.999 413.35 172.459 415.72C196.639 439.07 220.749 462.49 244.889 485.89C245.539 486.52 246.189 487.16 246.849 487.78C250.799 491.49 251.149 491.55 254.359 487.24C261.949 477.04 269.179 466.55 277.059 456.58C281.659 450.76 284.519 444.45 286.939 437.5C293.159 419.64 297.799 401.29 304.029 383.47C309.139 368.83 312.629 353.86 316.039 338.82C317.159 333.91 316.859 333.55 311.709 333.5C304.079 333.42 296.449 333.45 288.809 333.37C270.999 333.17 253.269 331.46 235.509 330.34C227.349 329.83 219.189 329.48 211.029 329.01C208.049 328.84 205.479 329.41 202.809 331.05C196.549 334.88 189.599 333.22 186.089 327.55C183.329 323.1 183.619 318.23 186.859 314.39C190.149 310.5 195.879 308.52 200.109 311.2C206.759 315.42 214.009 314.88 221.139 315.23C245.989 316.43 270.849 317.38 295.719 318.4C298.579 318.52 301.439 318.42 304.979 318.42C303.559 316.21 301.729 315.81 300.249 315.03C269.359 298.9 236.979 286.7 203.309 277.68C185.559 272.92 168.699 265.53 151.839 258.27C149.859 257.42 147.899 256.33 146.209 255C143.209 252.63 142.329 249.07 143.529 245.71C144.799 242.19 147.459 240.02 151.389 240.14C156.829 240.3 162.259 240.83 167.679 241.34C184.669 242.94 201.649 244.62 218.639 246.25C223.999 246.77 229.369 247.25 234.879 247.76C234.859 245.31 233.259 244.49 232.159 243.44C217.089 228.97 201.939 214.57 186.919 200.05C184.609 197.82 182.129 197.12 179.069 197.14C169.079 197.19 159.079 197.24 149.139 195.98C147.139 195.73 145.149 195.56 143.419 194.44C140.959 192.85 139.469 190.65 139.809 187.61C140.169 184.44 141.849 182.24 144.949 181.21C146.719 180.62 148.489 180.66 150.329 180.92C156.389 181.75 162.469 182.47 169.519 183.35C166.239 178.28 163.299 175.04 157.699 174.56C146.519 173.6 142.209 163.31 145.009 155.36C147.199 149.15 153.799 144.83 160.339 145.4C166.899 145.97 172.039 150.92 173.059 157.65C173.913 163.264 176.926 167.904 182.099 171.57L182.159 171.48ZM702.399 556.96C699.289 553.08 696.099 550.94 693.309 548.4C684.719 540.59 676.039 532.88 667.459 525.06C664.389 522.27 661.139 520.69 656.759 520.78C645.149 521 633.529 520.94 621.929 520.6C616.919 520.45 613.649 522.3 611.349 526.58C604.809 538.74 599.359 551.4 594.229 564.21C593.009 567.25 593.479 567.86 596.589 567.53C609.389 566.2 622.199 564.89 634.979 563.38C652.439 561.32 669.809 558.4 687.469 558.33C692.119 558.31 696.759 557.5 702.399 556.96ZM406.629 347.95C407.939 360.74 408.249 373.63 408.839 386.5C409.029 390.62 410.349 393.7 413.259 396.57C421.289 404.47 429.389 412.33 436.909 420.69C441.269 425.54 445.719 426.09 451.479 424.22C462.889 420.5 474.049 416.15 485.119 411.55C492.099 408.65 492.079 408.73 486.469 404.07C462.319 383.98 436.379 366.08 413.469 344.48C411.829 342.94 409.949 339.95 407.849 340.91C405.229 342.11 407.269 345.52 406.629 347.96V347.95ZM317.399 461.88C317.549 463.58 318.869 464.11 319.779 464.93C330.589 474.64 341.479 484.26 352.209 494.06C354.809 496.44 357.509 497.45 361.009 497.43C372.819 497.34 384.639 497.22 396.429 497.68C402.259 497.91 405.429 495.46 407.939 490.59C414.029 478.79 419.369 466.66 424.349 454.37C424.779 453.31 425.859 452.19 424.589 450.68C389.039 454.4 353.369 458.13 317.399 461.89V461.88ZM609.729 490.78C611.509 490.57 611.959 489.2 612.719 488.26C619.459 479.94 626.149 471.58 632.859 463.23C643.889 449.52 654.019 435.09 666.059 422.19C669.529 418.48 672.829 414.61 676.119 410.74C676.989 409.71 678.719 408.7 677.809 407.12C676.979 405.67 675.159 406.3 673.779 406.37C659.469 407.1 645.159 407.9 630.849 408.66C627.789 408.82 625.419 410.21 623.169 412.26C614.299 420.33 606.169 429.15 597.319 437.21C593.199 440.96 592.479 444.9 593.969 449.88C596.929 459.81 600.459 469.52 604.589 479.02C606.299 482.96 607.439 487.18 609.739 490.79L609.729 490.78ZM462.089 701.02C462.899 701.17 463.439 700.64 463.899 700.12C474.199 688.64 484.489 677.15 494.789 665.67C496.599 663.65 496.999 661.25 497.149 658.63C497.859 646.3 497.569 633.95 497.969 621.62C498.139 616.56 496.189 613.53 491.909 611.17C479.789 604.5 466.999 599.35 454.269 594.04C453.309 593.64 452.309 592.98 450.879 593.95C454.599 629.52 458.339 665.27 462.079 701.03L462.089 701.02ZM340.589 611.8C341.829 611.85 342.729 611.97 343.619 611.92C358.649 611.15 373.679 610.33 388.709 609.6C391.689 609.46 393.749 607.9 395.749 605.95C404.439 597.46 413.049 588.86 421.949 580.6C425.499 577.31 426.559 573.9 424.959 569.46C424.409 567.93 424.019 566.34 423.539 564.77C420.159 553.64 415.629 542.95 411.179 532.22C408.889 526.71 408.689 526.73 404.799 531.4C383.929 556.5 365.169 583.33 342.719 607.14C341.669 608.25 340.269 609.37 340.589 611.79V611.8ZM612.179 678.15C612.179 676.48 612.279 675.03 612.159 673.61C611.189 662.03 610.369 650.44 610.169 638.82C610.119 636.1 609.599 633.4 609.549 630.68C609.489 627.17 608.059 624.54 605.579 622.09C597.179 613.79 588.739 605.52 580.729 596.85C577.089 592.91 573.459 592.22 568.629 593.68C555.389 597.69 542.659 603.01 529.899 608.28C529.089 608.61 528.169 608.89 527.779 610.41C554.049 632.9 582.899 652.62 608.269 676.54C609.149 677.37 610.079 678.36 612.179 678.15ZM556.429 317.22C554.599 317.82 553.659 319.46 552.489 320.76C543.239 331.01 534.129 341.38 524.809 351.55C522.309 354.28 521.139 357.09 521.169 360.81C521.269 372.44 521.429 384.08 520.909 395.68C520.629 401.96 523.269 405.42 528.479 408.11C539.629 413.88 551.099 418.89 562.709 423.63C563.379 423.9 564.059 424.17 564.739 424.43C567.009 425.28 567.739 424.17 567.689 422.09C567.679 421.55 567.659 421 567.599 420.46C566.019 406.39 564.499 392.31 562.839 378.25C561.289 365.09 559.019 352.02 558.809 338.72C558.719 333.1 558.189 327.48 557.799 321.86C557.689 320.28 557.849 318.56 556.419 317.22H556.429ZM600.279 689.32C569.319 670.38 543.269 647.1 516.499 624.3C516.159 625.23 515.819 625.7 515.819 626.17C515.849 638.68 515.929 651.2 515.969 663.71C515.969 666.02 516.849 667.9 518.329 669.62C529.419 682.57 540.049 695.89 550.189 709.6C551.909 711.93 553.599 712.35 556.189 711.09C570.519 704.12 584.229 695.91 600.269 689.32H600.279ZM318.639 445.84C352.849 437.52 387.749 435.75 422.749 432.65C422.309 431.72 422.199 431.15 421.859 430.81C412.959 421.98 404.039 413.18 395.129 404.38C393.649 402.92 391.899 402.19 389.789 402.03C373.129 400.83 356.559 398.87 340.019 396.57C334.729 395.83 334.699 395.92 332.999 400.84C328.079 415.08 324.299 429.71 318.679 443.72C318.499 444.17 318.659 444.74 318.659 445.84H318.639ZM688.899 419.07C670.669 449.24 647.119 475.05 624.909 501.64C625.599 502.88 626.379 502.81 627.069 502.81C638.309 502.67 649.549 502.91 660.789 502.35C665.629 502.11 669.369 500.58 672.999 497.5C684.469 487.75 696.239 478.37 708.289 469.34C712.829 465.94 712.839 465.91 710.439 460.99C703.859 447.46 696.419 434.34 690.399 420.53C690.209 420.1 689.679 419.82 688.899 419.08V419.07ZM329.959 598.79C348.239 569.04 371.569 542.88 394.599 515.79C393.109 515.6 392.419 515.45 391.719 515.43C379.199 515.03 366.709 516.21 354.199 516.18C351.649 516.18 349.759 517.35 347.899 518.93C336.009 529.03 323.889 538.85 311.409 548.2C307.583 551.067 306.689 554.59 308.729 558.77C309.049 559.42 309.379 560.07 309.719 560.71C315.959 572.59 322.349 584.4 327.719 596.71C328.069 597.5 328.309 598.47 329.969 598.79H329.959ZM595.909 585.54C595.639 586.9 596.459 587.44 597.079 588.04C605.919 596.65 614.799 605.21 623.609 613.85C625.449 615.65 627.559 616.08 629.999 616.3C639.569 617.17 649.129 618.15 658.679 619.21C665.889 620.01 673.089 620.9 680.269 621.95C682.919 622.34 684.449 621.55 685.189 619.01C685.489 617.97 685.909 616.96 686.239 615.92C690.569 602.26 694.679 588.52 699.819 575.13C700.079 574.46 700.309 573.76 699.279 572.71C665.489 580.66 630.629 582.8 595.909 585.54ZM432.619 596C431.699 595.8 431.119 596.22 430.609 596.74C421.879 605.7 413.169 614.68 404.429 623.64C403.089 625.01 402.539 626.62 402.379 628.52C400.959 645.32 399.029 662.06 396.829 678.77C396.159 683.89 396.219 683.92 401.229 685.64C414.599 690.23 428.319 693.79 441.489 699C442.159 699.26 442.869 699.46 443.579 699.58C444.699 699.76 445.379 699.1 445.359 698.08C445.329 696.83 445.039 695.57 444.769 694.34C442.919 686.21 441.029 678.07 440.079 669.78C437.429 646.56 434.279 623.38 433.479 599.99C433.429 598.62 433.889 597.05 432.619 596.01V596ZM572.629 318.17C580.999 352.9 582.709 387.61 585.849 422.32C588.419 421.51 589.449 419.92 590.709 418.66C597.499 411.83 604.079 404.78 611.069 398.17C614.789 394.66 616.399 390.71 616.729 385.74C617.719 370.7 619.709 355.75 621.659 340.81C622.469 334.62 622.499 334.46 616.819 332.52C603.239 327.88 589.359 324.16 575.969 318.95C575.319 318.7 574.599 318.63 572.629 318.18V318.17ZM419.289 329.3C423.909 333.16 428.869 335.48 433.289 338.6C454.849 353.79 475.109 370.61 494.949 387.95C497.349 390.05 499.589 392.34 502.469 393.97C502.819 393.13 503.089 392.8 503.069 392.49C502.199 379.97 502.589 367.43 502.419 354.9C502.379 352.17 501.379 350.1 499.669 348.04C489.439 335.75 479.339 323.36 469.729 310.58C467.209 307.22 463.986 306.514 460.059 308.46C447.029 314.9 434.319 321.97 421.029 327.89C420.569 328.1 420.209 328.54 419.289 329.3ZM328.749 517.1C325.229 516.27 321.859 515.55 318.859 518.02C308.199 526.81 296.519 534.19 285.409 542.37C281.159 545.5 281.199 545.52 283.559 550.32C289.079 561.56 294.669 572.76 300.079 584.06C307.129 598.81 315.089 613.07 322.749 627.5C324.009 629.86 325.539 631.74 328.289 632.28C339.519 634.5 350.799 636.24 362.309 635.87C363.759 635.82 365.279 635.82 366.429 634.76C369.709 631.74 373.049 628.77 375.859 625.22C374.139 623.88 372.669 624.42 371.319 624.64C359.989 626.52 348.569 626.54 337.129 626.69C328.499 626.81 323.049 622.98 319.759 615.37C319.329 614.37 318.819 613.4 318.439 612.38C314.959 603.2 310.589 594.42 306.089 585.71C301.179 576.2 296.039 566.8 291.189 557.25C287.689 550.37 288.779 547.32 295.209 543.3C307.229 535.78 317.669 526.2 328.759 517.09L328.749 517.1ZM501.549 330C502.959 322.14 502.749 321.54 498.819 316.73C496.639 314.06 494.599 311.27 492.589 308.47C487.089 300.79 481.669 293.06 476.149 285.39C472.909 280.88 472.869 280.96 467.819 283.45C451.529 291.49 435.169 299.38 418.959 307.56C409.399 312.39 400.059 317.66 390.629 322.75C388.489 323.9 386.739 325.39 386.239 327.98C384.079 339.05 382.409 350.17 382.699 361.49C382.739 363.11 382.699 364.84 383.859 366.15C386.819 369.47 389.819 372.77 393.349 375.53C394.379 374.25 394.139 373.34 393.999 372.46C391.969 359.87 391.469 347.22 391.969 334.48C392.209 328.34 394.799 324.09 400.049 321.34C403.259 319.66 406.569 318.12 409.919 316.73C420.329 312.41 430.439 307.47 440.329 302.05C447.179 298.3 454.049 294.58 461.019 291.05C467.869 287.58 471.059 288.59 475.119 294.93C482.869 307.03 492.479 317.72 501.569 329.99L501.549 330ZM625.159 642.01C624.569 645.39 624.819 647.36 625.109 649.32C626.519 658.67 627.109 668.06 626.989 677.52C626.799 692.08 625.049 694.9 611.619 700.36C598.649 705.63 586.199 711.93 573.929 718.64C568.039 721.86 562.099 725 556.029 727.86C550.419 730.5 546.909 729.14 543.759 723.81C542.469 721.63 541.129 719.46 539.589 717.45C532.979 708.8 526.299 700.2 519.619 691.61C519.019 690.83 518.549 689.58 516.849 690.4C516.589 693.68 515.869 697.09 518.419 700.08C527.269 710.46 534.409 722.1 542.529 733.01C545.699 737.26 545.869 737.34 550.429 735.08C565.869 727.42 581.379 719.9 596.749 712.1C607.099 706.85 617.239 701.17 627.519 695.78C630.289 694.33 632.109 692.37 632.699 689.26C634.559 679.44 635.699 669.54 636.269 659.57C636.429 656.68 636.269 653.61 634.229 651.3C631.619 648.35 628.739 645.65 625.169 642.02L625.159 642.01ZM689.479 500.82L689.969 501.93C693.289 501.82 696.739 502.82 699.769 500.3C710.249 491.58 721.799 484.33 732.759 476.26C737.299 472.92 737.369 472.61 734.779 467.35C728.049 453.68 721.269 440.03 714.659 426.3C708.819 414.19 701.979 402.63 695.839 390.69C694.609 388.3 692.919 386.56 690.199 386.02C679.329 383.86 668.409 382.13 657.279 382.33C655.839 382.36 654.229 382.18 653.059 383.12C649.429 386.01 646.009 389.13 643.319 393.03C645.129 394.36 646.799 393.83 648.319 393.57C659.099 391.72 669.979 391.81 680.869 391.52C690.229 391.27 695.989 395.38 699.279 403.75C699.679 404.76 700.099 405.77 700.529 406.77C704.759 416.61 709.009 426.42 714.179 435.82C718.899 444.41 723.469 453.08 727.869 461.83C730.689 467.42 729.849 471.08 724.979 474.01C716.059 479.36 708.249 486.15 700.069 492.47C696.519 495.22 693.019 498.04 689.489 500.82H689.479ZM685.839 522.09C687.059 524.41 688.919 525.28 690.429 526.44C699.669 533.52 708.259 541.29 716.059 549.97C719.939 554.28 721.269 558.91 719.609 564.5C718.359 568.69 716.629 572.68 714.989 576.71C708.529 592.54 704.059 609.02 698.979 625.31C698.169 627.9 697.329 630.53 696.099 632.93C694.279 636.49 691.409 637.73 687.479 637C684.809 636.51 682.189 635.66 679.499 635.29C668.539 633.8 657.559 632.4 646.579 631.05C645.259 630.89 643.729 630.22 642.359 631.78C644.819 635.6 647.759 638.34 652.799 638.02C654.939 637.89 657.129 638.34 659.279 638.69C670.019 640.43 680.759 642.24 691.489 644.01C695.909 644.74 696.329 644.51 697.839 640.26C699.179 636.5 700.409 632.7 701.729 628.93C709.939 605.46 717.749 581.85 724.769 557.99C725.849 554.32 725.349 551.35 723.259 548.27C718.559 541.34 712.889 535.17 708.029 528.4C702.229 520.31 694.459 521.04 685.829 522.09H685.839ZM387.379 641.53C383.279 644.41 380.269 647.15 380.609 652.25C380.749 654.39 380.279 656.58 379.939 658.73C378.229 669.3 376.469 679.85 374.729 690.41C373.819 695.89 374.009 696.25 379.009 697.95C395.839 703.69 412.629 709.54 429.519 715.11C439.849 718.52 450.329 721.5 460.749 724.68C463.449 725.5 466.039 725.72 468.579 724.06C477.579 718.2 486.019 711.65 493.729 704.17C495.019 702.92 496.499 701.6 496.679 699.71C497.119 695.09 497.289 690.45 496.539 685.38C494.289 686.62 493.419 688.47 492.249 689.97C484.739 699.55 476.949 708.85 467.549 716.71C463.719 719.92 459.599 720.88 454.889 719.59C452.789 719.02 450.659 718.47 448.679 717.59C431.379 709.9 413.159 704.89 395.129 699.35C392.179 698.45 389.189 697.61 386.389 696.35C382.249 694.48 380.449 691.35 381.519 687.12C384.169 676.69 384.909 665.99 386.249 655.39C386.799 651.02 388.109 646.63 387.389 641.53H387.379ZM376.149 386.91C373.849 382.69 370.809 380.83 366.729 380.46C364.199 380.23 361.669 380 359.169 379.6C348.609 377.9 338.059 376.13 327.499 374.4C322.509 373.58 322.159 373.84 320.569 378.71C319.439 382.16 318.269 385.59 317.079 389.02C308.789 412.84 300.849 436.77 293.699 460.97C292.739 464.23 293.279 466.85 295.179 469.63C299.899 476.53 305.479 482.78 310.349 489.52C316.389 497.88 324.529 497.23 333.189 497.12C332.669 494.61 330.999 494.01 329.749 493.06C321.069 486.46 313.209 478.95 305.279 471.48C298.119 464.73 296.799 457.56 300.689 448.94C300.909 448.44 301.089 447.93 301.299 447.43C307.729 432.58 312.479 417.14 317.029 401.64C318.459 396.77 319.929 391.89 321.719 387.14C323.609 382.12 327.109 380.19 331.949 381.45C342.539 384.21 353.409 384.93 364.209 386.17C367.929 386.6 371.639 387.92 376.149 386.91ZM630.559 377.09C635.409 373.71 637.929 370.54 637.909 365.59C637.899 362.54 638.669 359.48 639.169 356.44C640.759 346.77 642.449 337.12 643.969 327.45C644.809 322.08 644.559 321.85 639.279 320.19C637.379 319.59 635.459 319.03 633.579 318.36C608.769 309.58 583.819 301.25 558.579 293.8C554.769 292.67 551.619 292.97 548.339 295.24C541.169 300.21 534.619 305.97 527.709 311.25C519.939 317.18 521.079 324.72 521.789 332.99C523.919 331.98 524.689 330.49 525.669 329.23C531.799 321.34 538.669 314.11 545.329 306.68C553.219 297.88 561.479 296.45 571.999 301.42C584.149 307.17 597.059 311.01 609.949 314.83C617.079 316.95 624.219 319.06 631.219 321.57C636.949 323.62 638.359 326.85 636.919 332.64C633.349 346.94 633.009 361.66 630.549 377.09H630.559ZM303.689 286.89C293.509 260.75 283.529 235.15 273.559 209.54C274.429 220.86 273.249 232.12 274.549 243.3C275.029 247.43 275.399 251.66 275.039 255.78C274.729 259.31 275.859 261.67 278.399 263.81C285.759 270.03 292.309 277.11 299.329 283.69C300.459 284.74 301.329 286.17 303.679 286.88L303.689 286.89ZM209.229 745.04C209.229 745.22 209.219 745.39 209.209 745.57C211.719 745.38 214.229 745.13 216.749 745.03C226.709 744.61 236.669 744.26 246.629 743.83C251.289 743.63 256.479 744.48 260.439 742.68C264.449 740.86 267.309 736.41 270.559 733.01C275.909 727.4 281.169 721.7 286.479 716.04C286.319 715.75 286.159 715.47 285.999 715.18C260.409 725.13 234.819 735.09 209.229 745.04ZM886.769 553.8C886.929 553.54 887.089 553.28 887.249 553.02C886.209 552.06 885.179 551.1 884.139 550.15C874.079 540.98 863.919 531.92 854.039 522.57C851.859 520.51 849.839 519.45 846.919 519.52C838.929 519.71 830.939 519.69 822.959 519.89C819.989 519.96 817.029 520.42 814.069 520.71C814.019 521.1 813.969 521.49 813.909 521.88C838.189 532.52 862.479 543.17 886.759 553.81L886.769 553.8ZM204.629 496.43C180.859 485.99 157.159 475.59 132.839 464.91C133.489 467.82 135.169 468.74 136.439 469.92C146.129 478.91 155.899 487.81 165.569 496.82C167.199 498.33 168.989 498.72 171.029 498.7C180.999 498.57 190.959 498.46 200.919 498.28C202.099 498.26 203.499 498.57 204.619 496.42L204.629 496.43ZM806.769 273.7C801.169 273.7 795.569 273.61 789.979 273.72C780.209 273.91 770.469 275.05 760.689 274.7C758.599 274.62 757.269 275.5 755.979 276.86C748.979 284.22 741.959 291.56 734.969 298.94C734.279 299.67 733.189 300.33 734.219 302.35C758.589 293.48 782.549 283.35 806.769 273.71V273.7ZM716.649 732.3C716.269 732.49 715.899 732.68 715.519 732.87C725.199 757.74 734.889 782.6 744.569 807.47C745.339 803.43 745.109 799.65 744.949 795.87C744.449 784.28 743.909 772.7 743.559 761.11C743.499 759.17 743.329 757.59 741.879 756.22C733.449 748.26 725.049 740.28 716.649 732.31V732.3ZM497.959 813.92C497.559 813.78 497.159 813.64 496.769 813.51C486.129 837.77 475.489 862.02 464.439 887.21C467.349 885.69 468.359 883.92 469.689 882.48C478.779 872.62 487.829 862.71 497.029 852.96C498.579 851.32 499.099 849.66 499.029 847.61C498.679 836.38 498.319 825.16 497.969 813.93L497.959 813.92ZM553.359 133.07C552.379 132.46 551.809 132.79 551.299 133.33C549.559 135.18 547.809 137.03 546.099 138.9C538.019 147.73 530.009 156.62 521.829 165.36C520.129 167.18 519.859 169.13 519.879 171.33C519.949 177.32 520.069 183.31 520.109 189.3C520.149 194.68 520.109 200.06 520.109 205.44C520.549 205.53 520.989 205.63 521.429 205.72C532.039 181.57 542.649 157.41 553.349 133.07H553.359ZM206.059 259.25C229.639 269.54 253.949 277.21 277.429 287.27C270.219 279.74 262.779 272.62 255.319 265.52C254.109 264.37 252.609 263.75 250.919 263.59C235.969 262.15 221.009 260.7 206.059 259.25ZM812.239 758.89C789.359 748.98 765.689 741.4 742.839 731.28C742.529 732.88 743.149 733.36 743.649 733.85C749.859 739.93 756.099 745.99 762.309 752.08C764.079 753.82 766.159 754.57 768.619 754.8C778.529 755.72 788.429 756.82 798.339 757.79C802.959 758.24 807.599 758.53 812.239 758.9V758.89ZM545.759 898.7C546.119 898.5 546.479 898.3 546.839 898.09C537.059 875.3 525.619 853.25 516.359 830.15C516.179 840.58 516.529 850.86 516.839 861.15C516.919 863.7 518.409 865.54 519.879 867.37C523.059 871.32 526.299 875.22 529.539 879.12C534.939 885.65 540.349 892.17 545.759 898.7ZM286.649 742.27C279.189 749.02 272.069 755.94 265.559 763.46C264.289 764.93 263.979 766.65 263.799 768.48C262.759 779.11 261.569 789.74 260.679 800.38C260.369 804.11 259.219 807.8 259.979 812.72C269.689 788.86 277.039 765.2 286.649 742.26V742.27ZM118.949 546.24C141.979 537.47 163.799 526.24 187.579 517.05C185.999 516.51 185.529 516.21 185.059 516.21C175.999 516.28 166.939 516.4 157.879 516.47C155.759 516.49 154.009 517.33 152.439 518.62C141.269 527.82 130.109 537.03 118.949 546.24ZM830.379 502.36C840.659 502.16 850.929 501.95 861.209 501.79C863.369 501.75 864.969 500.69 866.539 499.4C876.349 491.31 886.179 483.26 895.969 475.15C896.809 474.46 898.259 473.94 897.699 471.89C874.979 481.63 853.129 492.93 830.379 502.37V502.36ZM757.979 208.48C748.379 231.02 741.129 254.43 731.299 276.94C732.299 276.63 732.989 276.12 733.569 275.51C739.709 269.1 745.789 262.64 751.979 256.28C754.309 253.89 754.929 251.02 755.209 247.88C755.799 241.03 756.709 234.2 757.119 227.34C757.489 221.09 759.029 214.91 757.989 208.49L757.979 208.48ZM473.479 120.45C473.059 120.69 472.629 120.92 472.209 121.16C481.739 143.24 492.679 164.69 501.769 186.97C502.119 177.23 502.099 167.64 502.129 158.06C502.129 155.53 500.919 153.59 499.389 151.74C494.539 145.88 489.749 139.97 484.899 134.11C481.119 129.54 477.289 125 473.489 120.45H473.479ZM501.359 301.69C501.709 301.58 502.059 301.47 502.399 301.36C502.399 290.84 502.399 280.31 502.399 269.79C502.399 268.34 502.419 266.88 502.349 265.43C502.259 263.59 501.459 262.53 499.579 263.66C494.439 266.75 489.369 269.94 484.269 273.08C482.569 274.13 482.149 275.38 483.429 277.12C489.429 285.29 495.379 293.5 501.359 301.69ZM516.729 717.52C516.799 730.31 515.229 742.9 516.289 756.35C522.759 752.37 528.539 748.76 534.369 745.23C536.549 743.91 536.139 742.59 534.849 740.83C529.909 734.15 525.089 727.37 520.179 720.67C519.369 719.57 518.999 718 516.729 717.52ZM340.649 689.1C346.219 690.47 351.819 691.94 357.469 693.22C362.109 694.27 363.019 693.56 363.859 688.57C365.239 680.35 366.579 672.12 367.889 663.89C368.019 663.1 368.489 662.05 367.219 661.68C358.409 670.77 349.639 679.83 340.649 689.1ZM679.149 329.55C671.879 327.76 665.919 326.18 659.909 324.86C656.579 324.13 655.709 324.69 655.089 328.2C653.429 337.63 651.989 347.09 650.459 356.54C660.089 347.93 669.919 339.81 679.159 329.55H679.149ZM662.039 650.38C662.359 653.07 663.929 653.89 665.019 655.01C670.839 660.99 676.729 666.92 682.599 672.86C683.879 674.15 685.139 675.45 686.479 676.68C687.849 677.94 689.169 678.05 689.689 675.95C691.139 670.14 692.509 664.31 693.829 658.47C694.359 656.16 693.139 655.2 690.929 654.89C687.339 654.39 683.769 653.69 680.189 653.13C674.309 652.21 668.419 651.34 662.039 650.37V650.38ZM329.739 338.9C327.889 346.81 326.259 353.64 324.689 360.48C324.149 362.83 325.799 363.1 327.549 363.38C336.149 364.73 344.739 366.17 353.339 367.51C354.289 367.66 355.559 368.18 356.209 366.31C347.679 357.48 339.049 348.55 329.729 338.89L329.739 338.9ZM756.269 501.89C752.559 495.88 749.329 490.44 745.879 485.15C743.969 482.22 743.109 482.14 740.169 484.23C733.079 489.26 726.069 494.39 719.029 499.5C718.469 499.9 717.809 500.29 717.949 501.89H756.269ZM301.419 517.46C301.299 517.05 301.169 516.64 301.049 516.22C295.649 516.22 290.249 516.22 284.849 516.22C278.699 516.22 272.559 516.09 266.409 516.22C263.529 516.28 262.939 517.23 264.259 519.49C267.179 524.48 270.319 529.35 273.339 534.28C274.469 536.12 275.779 536.08 277.379 534.91C285.379 529.08 293.409 523.28 301.419 517.47V517.46ZM590.249 519.59C584.819 519.59 579.949 519.61 575.079 519.58C573.009 519.57 571.179 520.01 569.659 521.56C564.109 527.25 558.549 532.94 552.919 538.57C551.219 540.27 551.609 541.53 553.069 543.15C554.979 545.26 556.389 544.16 558.189 543.01C568.219 536.55 577.399 528.85 587.649 522.71C588.539 522.17 589.539 521.63 590.239 519.6L590.249 519.59ZM444.439 558.07C448.829 555.36 451.489 551.85 454.769 549.07C457.039 547.15 457.829 544.79 457.739 541.85C457.549 535.5 457.689 529.14 457.499 522.8C457.429 520.5 458.679 517.36 455.009 516.5C452.519 515.91 451.389 517.28 450.499 521.97C448.369 533.2 446.309 544.44 444.249 555.68C444.159 556.17 444.319 556.72 444.439 558.07ZM519.899 427.7C519.899 434.04 519.899 439.1 519.899 444.16C519.899 445.83 520.209 447.39 521.489 448.63C527.209 454.19 532.909 459.75 538.619 465.32C540.029 466.69 541.419 466.79 542.899 465.41C544.239 464.16 544.859 462.82 543.699 461.12C543.289 460.52 542.909 459.91 542.499 459.31C535.709 449.47 528.919 439.63 522.109 429.8C521.819 429.38 521.359 429.07 519.909 427.7H519.899ZM557.449 574.61C554.889 569.17 550.909 565.5 547.169 561.64C546.089 560.52 544.679 560.22 543.169 560.43C536.329 561.37 529.439 560.86 522.579 561.03C521.499 561.06 520.409 561.09 519.329 561.21C517.899 561.37 517.029 562.23 516.839 563.65C516.639 565.23 517.089 566.58 518.719 567.13C520.079 567.59 521.499 567.95 522.919 568.2C529.499 569.35 536.109 570.39 542.689 571.59C547.629 572.49 552.529 573.59 557.449 574.6V574.61ZM497.289 588.83C499.309 583.31 499.009 577.75 498.769 572.2C498.719 571.08 497.919 570.19 497.079 569.49C491.099 564.46 485.729 558.78 480.169 553.31C478.709 551.87 477.309 551.18 475.479 552.83C473.789 554.35 473.849 555.73 475.069 557.56C482.119 568.11 490.189 577.94 497.289 588.84V588.83ZM460.789 443.64C460.599 443.96 460.419 444.28 460.229 444.6C463.749 448.46 467.289 452.31 470.779 456.2C472.289 457.88 474.169 458.2 476.239 457.89C482.739 456.92 489.289 457.38 495.819 457.23C497.269 457.2 498.729 457.15 500.149 456.93C501.349 456.74 501.989 455.83 502.109 454.63C502.239 453.33 502.189 452.01 500.779 451.37C499.959 451 499.059 450.8 498.179 450.61C485.769 447.99 473.139 446.6 460.789 443.63V443.64ZM428.749 497.09C428.859 497.62 428.969 498.15 429.079 498.67C433.559 498.67 438.049 498.5 442.519 498.72C445.889 498.89 448.359 497.79 450.609 495.28C454.959 490.43 459.559 485.8 464.059 481.08C464.679 480.42 465.309 479.77 465.909 479.1C466.959 477.93 466.689 476.83 465.749 475.72C464.129 473.8 462.439 474.03 460.489 475.29C449.709 482.27 439.739 490.4 428.749 497.09ZM573.229 460.63C570.249 463.42 567.429 466.43 564.229 468.95C561.339 471.22 560.159 473.84 560.669 477.42C561.539 483.55 561.329 489.73 561.369 495.9C561.369 497.16 561.429 498.45 561.669 499.68C561.949 501.1 563.009 501.75 564.439 501.81C565.849 501.87 566.959 501.38 567.389 499.95C567.699 498.91 567.819 497.82 568.069 496.76C570.509 486.15 571.249 475.22 574.009 464.66C574.309 463.52 574.729 462.19 573.229 460.62V460.63ZM431.109 544.13C435.019 535.74 436.109 527.12 437.439 518.54C437.779 516.35 436.629 515.53 434.689 515.51C430.519 515.46 426.339 515.35 422.179 515.48C419.339 515.56 418.819 516.27 419.919 518.83C423.559 527.3 427.369 535.7 431.109 544.13ZM587.479 474.2C583.689 482.25 582.439 490.44 581.389 498.66C580.989 501.82 581.699 502.59 584.879 502.74C588.849 502.92 592.839 502.8 596.819 502.84C598.969 502.86 599.929 502.06 598.939 499.86C595.119 491.31 591.299 482.76 587.479 474.2ZM521.799 268.9C520.769 275.72 521.189 294.43 522.539 298.4C527.959 294.05 533.309 289.83 538.559 285.51C540.289 284.09 538.879 282.96 537.829 281.98C534.129 278.54 530.419 275.1 526.649 271.74C525.349 270.58 524.259 268.98 521.799 268.9ZM544.329 587.32C544.349 586.93 544.359 586.54 544.379 586.15C536.049 583.82 527.579 582.09 518.969 581.06C516.889 580.81 515.909 581.92 515.879 583.88C515.809 588.23 515.789 592.57 515.829 596.92C515.859 599.34 517.259 599.55 519.129 598.71C527.529 594.92 535.929 591.13 544.329 587.33V587.32ZM589.189 539.93C580.439 542.95 573.439 548.3 566.459 553.68C565.119 554.72 565.589 555.96 566.499 556.99C570.039 561.02 573.549 565.08 578.299 568.67C582.049 558.78 585.619 549.36 589.189 539.93ZM351.309 648.89C344.569 648.15 338.479 647.48 332.399 646.83C328.839 646.45 328.149 646.93 328.539 650.62C329.119 656.04 329.039 661.48 329.369 666.91C329.429 667.95 329.209 669.14 330.319 669.86C333.789 668.15 347.559 654.55 351.309 648.89ZM649.059 668.16C648.329 674.43 647.529 680.98 646.819 687.55C646.649 689.08 647.539 689.91 649.109 689.85C655.419 689.63 661.739 689.41 668.049 689.17C668.959 689.14 669.949 688.99 670.189 687.93C670.419 686.92 669.579 686.28 668.959 685.66C663.179 679.95 657.379 674.26 651.579 668.57C651.059 668.06 650.459 667.67 649.069 668.16H649.059ZM479.169 588.03C475.239 579.91 469.999 573.05 464.739 566.2C463.919 565.14 462.879 565.2 461.929 566.07C458.479 569.26 455.039 572.47 451.609 575.69C449.949 577.24 450.139 578.35 452.359 579.18C459.819 581.97 467.229 584.86 474.689 587.65C475.829 588.07 476.969 588.83 479.169 588.03ZM540.569 429.43C539.429 430.16 539.629 430.9 539.969 431.53C543.769 438.78 548.619 445.33 553.569 451.83C554.729 453.36 555.939 453.28 557.209 452.03C560.319 448.99 563.489 446 566.489 442.86C568.479 440.78 568.359 440.04 565.699 438.99C557.289 435.69 548.809 432.55 540.579 429.42L540.569 429.43ZM429.819 479.49C437.969 475.47 444.959 470.09 452.109 464.93C453.729 463.76 453.579 462.66 452.319 461.38C449.659 458.67 447.049 455.91 444.339 453.25C440.749 449.72 440.389 449.77 438.609 454.29C436.029 460.85 433.519 467.45 431.089 474.07C430.499 475.69 429.339 477.23 429.809 479.49H429.819ZM267.859 497.14C277.659 497.64 286.499 497.29 295.329 496.56C297.769 496.36 298.199 495.32 296.659 493.39C293.399 489.27 289.989 485.27 286.669 481.19C285.189 479.37 283.669 479.34 282.099 480.98C277.339 485.92 272.289 490.61 267.859 497.14ZM472.909 431.65C482.149 434.52 490.309 436.02 498.549 437.15C501.049 437.49 502.359 436.54 502.489 434.01C502.699 429.86 502.919 425.7 503.099 421.55C503.189 419.39 502.329 418.43 500.129 419.42C491.409 423.34 482.689 427.26 472.899 431.65H472.909ZM720.039 521.68C723.859 528.05 728.429 532.21 731.929 537.18C733.859 539.92 734.369 539.87 736.899 537.2C740.999 532.87 744.959 528.41 748.949 523.99C749.529 523.35 750.229 522.66 749.479 521.12C740.229 520.36 730.789 522.08 720.039 521.68ZM666.429 369.34C674.199 370.2 680.749 371.01 687.329 371.62C689.569 371.83 689.869 370 689.859 368.28C689.849 364.48 689.789 360.69 689.719 356.89C689.669 354.04 689.419 351.23 687.999 347.58C680.709 354.94 673.949 361.75 666.429 369.34ZM369.099 350.16C369.339 349.79 369.839 349.37 369.889 348.9C370.509 343.14 371.049 337.37 371.629 331.6C371.849 329.43 370.679 328.64 368.719 328.68C363.099 328.8 357.479 328.92 351.859 329.07C350.769 329.1 349.509 329.19 349.049 330.32C348.569 331.52 349.629 332.32 350.379 333.06C355.779 338.43 361.199 343.79 366.619 349.13C367.259 349.76 367.939 350.39 369.099 350.15V350.16ZM496.669 719.43C490.639 724.27 485.749 728.26 480.789 732.16C479.029 733.55 479.179 734.69 480.709 736.1C484.569 739.65 488.339 743.31 492.239 746.81C493.369 747.83 494.439 749.25 496.669 749.04V719.42V719.43ZM530.949 544.84C528.539 539.69 521.459 531.59 518.069 529.98C517.129 533.88 517.009 537.82 517.069 541.78C517.099 543.59 517.629 545.09 519.709 545.15C523.399 545.25 527.129 545.68 530.949 544.84ZM499.889 488.87C500.339 488.67 500.779 488.47 501.229 488.27C501.229 484.31 501.249 480.34 501.219 476.38C501.209 475.06 500.909 473.58 499.419 473.4C495.439 472.92 491.409 472.35 486.759 473.99C491.479 479.23 495.129 484.55 499.899 488.87H499.889ZM499.889 549.5C501.389 542.81 501.319 536.26 501.609 528.97C499.859 530.33 498.659 531.09 497.649 532.07C487.539 541.85 488.249 538.61 497.119 548C497.719 548.64 498.299 549.37 499.889 549.5ZM528.969 516.44C532.059 521.47 535.559 524.13 538.469 527.3C539.499 528.42 540.679 528.49 541.779 527.4C544.099 525.11 546.429 522.83 548.649 520.44C549.649 519.36 549.139 518.15 547.849 518.02C541.969 517.42 536.069 517.02 528.959 516.44H528.969ZM519.289 468.39C518.869 468.6 518.459 468.8 518.039 469.01C518.469 475.53 516.289 481.96 517.219 489.79C521.099 485.98 524.049 483.11 526.969 480.2C528.159 479.02 528.429 477.65 527.189 476.37C524.589 473.68 521.919 471.05 519.279 468.4L519.289 468.39ZM489.259 518.7C489.039 518.23 488.829 517.77 488.609 517.3C484.839 517.3 481.059 517.3 477.289 517.3C474.599 517.3 473.329 518.61 473.359 521.3C473.399 524.48 473.359 527.67 473.359 531.68C479.679 527.52 484.299 522.92 489.249 518.7H489.259ZM489.899 501.15C486.339 497.53 483.439 494.56 480.499 491.63C479.309 490.44 477.889 490.19 476.639 491.43C474.109 493.93 471.049 495.99 469.449 499.4C472.789 500.72 484.339 501.81 489.899 501.15ZM529.279 500.28C534.289 501.38 538.449 500.83 542.539 501.15C544.099 501.28 544.829 500.16 544.869 498.72C544.949 495.82 544.999 492.92 544.909 490.02C544.839 487.92 543.589 487.38 542.069 488.73C538.029 492.31 533.469 495.34 529.269 500.28H529.279Z" fill="white"/>
</svg>
